<?xml version="1.0" encoding="utf-8"?><svg xmlns="http://www.w3.org/2000/svg" xmlns:xlink="http://www.w3.org/1999/xlink" width="1356" height="482" preserveAspectRatio="xMidYMid" viewBox="0 0 1356 482" style="z-index:1;margin-right:-1.98864px;display:block;background-repeat-y:initial;background-repeat-x:initial;animation-play-state:paused" ><g transform="" style="animation-play-state:paused" ><linearGradient id="lg-0.27404555389984675" x1="0" x2="1" y1="0" y2="0" style="animation-play-state:paused" ><stop stop-color="#5e6fa3" offset="0" style="animation-play-state:paused" ></stop>

  
<stop stop-color="#689cc5" offset="1" style="animation-play-state:paused" ></stop></linearGradient>
<path d="M 0 0 L 0 210.855 Q 135.6 241.958 271.2 202.255 T 542.4 300.935 T 813.6 292.077 T 1084.8 243.568 T 1356 149.763 L 1356 0 Z" fill="url(#lg-0.27404555389984675)" opacity="0.4" style="opacity:0.4;animation-play-state:paused" ></path>
<path d="M 0 0 L 0 247.851 Q 135.6 237.874 271.2 201.548 T 542.4 234.59 T 813.6 212.338 T 1084.8 233.805 T 1356 219.976 L 1356 0 Z" fill="url(#lg-0.27404555389984675)" opacity="0.4" style="opacity:0.4;animation-play-state:paused" ></path>
<path d="M 0 0 L 0 285.517 Q 135.6 256.715 271.2 233.58 T 542.4 187.797 T 813.6 223.921 T 1084.8 213.654 T 1356 279.193 L 1356 0 Z" fill="url(#lg-0.27404555389984675)" opacity="0.4" style="opacity:0.4;animation-play-state:paused" ></path>
<path d="M 0 0 L 0 265.587 Q 135.6 257.014 271.2 232.21 T 542.4 224.698 T 813.6 226.858 T 1084.8 211.48 T 1356 248.922 L 1356 0 Z" fill="url(#lg-0.27404555389984675)" opacity="0.4" style="opacity:0.4;animation-play-state:paused" ></path>
<path d="M 0 0 L 0 260.075 Q 135.6 270.268 271.2 235.022 T 542.4 240.224 T 813.6 253.5 T 1084.8 275.881 T 1356 239.439 L 1356 0 Z" fill="url(#lg-0.27404555389984675)" opacity="0.4" style="opacity:0.4;animation-play-state:paused" ></path></g></svg>